<svg
  xmlns="http://www.w3.org/2000/svg"
  viewBox="0 0 512 512"
  role="img"
  aria-labelledby="title desc"
>
  <title id="title">Muro Box BLE MIDI Icon</title>
  <desc id="desc">
    A stylized music box with a cylinder, comb, and Bluetooth rune for the
    Muro Box BLE MIDI Home Assistant integration.
  </desc>

  <defs>
    <linearGradient id="bg" x1="0%" y1="0%" x2="100%" y2="100%">
      <stop offset="0%" stop-color="#183640" />
      <stop offset="100%" stop-color="#245360" />
    </linearGradient>
    <linearGradient id="lid" x1="0%" y1="0%" x2="100%" y2="100%">
      <stop offset="0%" stop-color="#6BB0AF" />
      <stop offset="100%" stop-color="#4A8F95" />
    </linearGradient>
    <linearGradient id="metal" x1="0%" y1="0%" x2="100%" y2="100%">
      <stop offset="0%" stop-color="#E2B45B" />
      <stop offset="100%" stop-color="#B87A24" />
    </linearGradient>
  </defs>

  <rect x="32" y="32" width="448" height="448" rx="96" fill="url(#bg)" />

  <g transform="rotate(-11 182 178)">
    <rect
      x="92"
      y="126"
      width="198"
      height="78"
      rx="26"
      fill="url(#lid)"
      stroke="#D7EFE8"
      stroke-width="10"
    />
  </g>

  <rect
    x="84"
    y="244"
    width="344"
    height="176"
    rx="36"
    fill="#F3E7D0"
    stroke="#D9C7A9"
    stroke-width="10"
  />

  <circle cx="190" cy="332" r="66" fill="url(#metal)" />
  <circle cx="190" cy="332" r="52" fill="none" stroke="#F7D79B" stroke-width="8" />

  <circle cx="166" cy="304" r="6" fill="#F9E5B8" />
  <circle cx="212" cy="316" r="6" fill="#F9E5B8" />
  <circle cx="174" cy="352" r="6" fill="#F9E5B8" />
  <circle cx="220" cy="364" r="6" fill="#F9E5B8" />

  <g stroke="#183640" stroke-width="11" stroke-linecap="round" stroke-linejoin="round" fill="none">
    <line x1="190" y1="286" x2="190" y2="378" />
    <polyline points="190,286 226,316 190,332 226,362 190,378" />
    <polyline points="190,286 154,318 190,332 154,350 190,378" />
  </g>

  <g fill="#F7ECD3">
    <rect x="286" y="284" width="12" height="88" rx="6" />
    <rect x="304" y="276" width="12" height="96" rx="6" />
    <rect x="322" y="268" width="12" height="104" rx="6" />
    <rect x="340" y="260" width="12" height="112" rx="6" />
    <rect x="358" y="268" width="12" height="104" rx="6" />
    <rect x="376" y="276" width="12" height="96" rx="6" />
  </g>

  <g fill="#F7ECD3">
    <circle cx="366" cy="162" r="14" />
    <rect x="375" y="118" width="14" height="66" rx="7" />
    <path d="M382 122 L430 110 L430 210 Q430 240 404 240 Q382 240 382 218 Z" />
  </g>
</svg>
